# xmcd
#
# Track frame offsets: 
#        150
#        15725
#        36247
#        60982
#        75562
#        110010
#        139380
#        154150
#        185307
#        203917
#        229265
#        261182
#        269767
#        282760
#
# Disc length: 3939 seconds
#
# Revision: 0
# Processed by: cddbd v1.5.2PL0 Copyright (c) Steve Scherf et al.
# Submitted via: ExactAudioCopy v1.0b1
#
DISCID=c90f610e
DTITLE=Nicolai - Die lustigen Weiber von Windsor (Froschauer, WDR RSO 
DTITLE=Köln, LandesJugendChor NRW) - CD 2
DYEAR=2003
DGENRE=Oper
TTITLE0=Akt 2, Nr. 7a Szene "Dies ist die Stunde, wo sie oft im Garten
TTITLE0=promeniert"
TTITLE1=Akt 2, Nr. 7b Romanze "Horch, die Lerche singt im Hain!"
TTITLE2=Akt 2, Nr. 7c Duettino "Fenton! - Mein Mädchen!"
TTITLE3=Akt 3, Nr. 7d Quartettino "Bestürmen denn die läst'gen Freier"
TTITLE4=Akt 2, Nr. 8 Duett "So! Jetzt hätt' ich ihn gefangen!"
TTITLE5=Akt 2, Nr. 9 Finale "Wer klopft?"
TTITLE6=Akt 3, Nr. 10 Ballade "Vom Järger Herne die Mär ist alt"
TTITLE7=Akt 3, Nr. 11 Rezitativ und Arie "Wohl denn! Gefasst ist der E
TTITLE7=ntschluss!"
TTITLE8=Akt 3, Nr. 12 Mondaufgang "O Süßer Mond!"
TTITLE9=Akt 3, Nr. 13 Terzettino "Die Glocke schlug schon Mitternacht"
TTITLE10=Akt 3, Nr. 14 Chor und Tanz der Elfen "Ihr Elfen, weiß und ro
TTITLE10=t und grau"
TTITLE11=Akt 3, Nr. 15 Chor und Mückentanz "Mücken, Wespen, Fliegencho
TTITLE11=r"
TTITLE12=Akt 3, Nr. 16 Rezitativ, Chor und Tanz "Er gesteht noch immer
TTITLE12=nicht"
TTITLE13=Akt 3, Nr. 17 Terzettino-Finale "So hat den der Schwank der f
TTITLE13=röhlichen Nacht"
EXTD=
EXTT0=
EXTT1=
EXTT2=
EXTT3=
EXTT4=
EXTT5=
EXTT6=
EXTT7=
EXTT8=
EXTT9=
EXTT10=
EXTT11=
EXTT12=
EXTT13=
PLAYORDER=
